<svg xmlns="http://www.w3.org/2000/svg" viewBox="0 0 251.41 38.91"><g style="isolation:isolate"><g style="isolation:isolate"><path d="M22.8,5.89v5.43H.49V5.89Zm-7.56,0V32.11H8.09V5.89Z" transform="translate(-0.49 -5.36)" style="fill:#005477"/><path d="M35.45,5.51a20.76,20.76,0,0,1,6,.72,6,6,0,0,1,3.4,2.42,8.81,8.81,0,0,1,1.08,4.76,9.37,9.37,0,0,1-.47,3,4.61,4.61,0,0,1-1.62,2.23,6.32,6.32,0,0,1-3.11,1.08V20a4.87,4.87,0,0,1,1.53.45,4.36,4.36,0,0,1,1.52,1.24,5.27,5.27,0,0,1,1,2.34L47,32.11H39.48l-1.86-7.87a2.59,2.59,0,0,0-.84-1.61,2.86,2.86,0,0,0-1.67-.4c-1.82,0-3.33,0-4.52,0s-2.2,0-3,0S26,22.09,25.23,22l.12-5H35.3a6.75,6.75,0,0,0,2.11-.26,1.77,1.77,0,0,0,1.05-1,5.13,5.13,0,0,0,.3-2,5.14,5.14,0,0,0-.3-2,1.79,1.79,0,0,0-1.05-1,6.75,6.75,0,0,0-2.11-.26q-3.76,0-6.36,0c-1.74,0-2.92.06-3.56.11l-.57-4.94C25.93,5.76,27,5.68,28,5.62s2.07-.08,3.25-.09Zm-3.64.38V32.11h-7V5.89Z" transform="translate(-0.49 -5.36)" style="fill:#005477"/><path d="M63,5.89a2.55,2.55,0,0,1,1.54.49,2.38,2.38,0,0,1,.9,1.37l7.18,24.36h-7.3L60.68,14c-.1-.43-.18-.89-.26-1.38s-.15-1-.23-1.39h-1c-.06.43-.13.89-.21,1.39s-.19.95-.29,1.38l-4.6,18.09H46.78L54,7.75a2.41,2.41,0,0,1,.89-1.37,2.57,2.57,0,0,1,1.54-.49Zm3.62,14.86v5.13H52.78V20.75Z" transform="translate(-0.49 -5.36)" style="fill:#005477"/><path d="M95.08,5.89,88.35,30.17a2.59,2.59,0,0,1-.89,1.41,2.49,2.49,0,0,1-1.58.53H79.53a2.52,2.52,0,0,1-1.61-.53,2.39,2.39,0,0,1-.86-1.41L70.3,5.89h7.33l4,17.9c.1.48.2,1,.31,1.48s.19,1,.26,1.48h.91c.08-.48.17-1,.27-1.48s.2-1,.3-1.48l4-17.9Z" transform="translate(-0.49 -5.36)" style="fill:#005477"/><path d="M102.37,5.78h4.5c1.54,0,3,0,4.53.09s2.84.17,4.08.32l-.34,5.1h-9.81a1.81,1.81,0,0,0-1.29.43,1.59,1.59,0,0,0-.45,1.2V25.08a1.59,1.59,0,0,0,.45,1.2,1.81,1.81,0,0,0,1.29.43h9.81l.34,5.1c-1.24.12-2.6.22-4.08.28s-3,.1-4.53.12h-4.5a5.87,5.87,0,0,1-4.25-1.55,5.38,5.38,0,0,1-1.64-4.07V11.4a5.33,5.33,0,0,1,1.64-4.08A5.91,5.91,0,0,1,102.37,5.78Zm-5.2,10.41h16.6V21H97.17Z" transform="translate(-0.49 -5.36)" style="fill:#005477"/><path d="M125.29,5.89V24.78a1.5,1.5,0,0,0,.49,1.19,1.94,1.94,0,0,0,1.33.44h9l.34,5.36a59.42,59.42,0,0,1-6,.4c-2.11,0-4.19,0-6.24,0a5.94,5.94,0,0,1-4.42-1.59,5.62,5.62,0,0,1-1.58-4.14V5.89Z" transform="translate(-0.49 -5.36)" style="fill:#005477"/><path d="M155.8,5.36a20.44,20.44,0,0,1,5.53.64A7.7,7.7,0,0,1,165,8.19a9.42,9.42,0,0,1,2,4.16,29.21,29.21,0,0,1,.63,6.65,29.2,29.2,0,0,1-.63,6.63,9.39,9.39,0,0,1-2,4.18A7.62,7.62,0,0,1,161.33,32a20.44,20.44,0,0,1-5.53.64,20.23,20.23,0,0,1-5.49-.64,7.53,7.53,0,0,1-3.65-2.19,9.19,9.19,0,0,1-2-4.18A29.2,29.2,0,0,1,144,19a29.21,29.21,0,0,1,.63-6.65,9.21,9.21,0,0,1,2-4.16A7.6,7.6,0,0,1,150.31,6,20.23,20.23,0,0,1,155.8,5.36Zm0,5.43a4.28,4.28,0,0,0-2.6.69A4,4,0,0,0,151.88,14,25.94,25.94,0,0,0,151.5,19a25.94,25.94,0,0,0,.38,5.05,4,4,0,0,0,1.32,2.47,5.24,5.24,0,0,0,5.2,0,3.91,3.91,0,0,0,1.31-2.47,25.17,25.17,0,0,0,.38-5.05,25.17,25.17,0,0,0-.38-5.05,3.93,3.93,0,0,0-1.31-2.47A4.3,4.3,0,0,0,155.8,10.79Zm-2.09,22.46a38.47,38.47,0,0,0,5.6,1.65q2.91.63,6.37,1.12l-1.83,5.89a41.9,41.9,0,0,1-6.57-2.33,37.87,37.87,0,0,1-5.13-2.83Z" transform="translate(-0.49 -5.36)" style="fill:#005477"/><path d="M192.66,5.89V21.47a16.85,16.85,0,0,1-1,6.52,6.64,6.64,0,0,1-3.4,3.55,15.14,15.14,0,0,1-6.31,1.1,17.37,17.37,0,0,1-6.78-1.1A6.85,6.85,0,0,1,171.49,28a16.22,16.22,0,0,1-1.1-6.52V5.89h7.14V21.47a13.8,13.8,0,0,0,.35,3.5,2.64,2.64,0,0,0,1.23,1.74,6.13,6.13,0,0,0,4.85,0A2.68,2.68,0,0,0,185.17,25a13.88,13.88,0,0,0,.34-3.5V5.89Z" transform="translate(-0.49 -5.36)" style="fill:#005477"/><path d="M203.38,5.89V32.11h-7.07V5.89Z" transform="translate(-0.49 -5.36)" style="fill:#005477"/><path d="M217.93,5.43q2,0,3.36.12c.93.07,1.77.18,2.55.3s1.56.31,2.37.53l-.53,5.25c-.86-.05-1.66-.08-2.39-.1l-2.36,0c-.84,0-1.84,0-3,0a4.1,4.1,0,0,0-2.45.64,3.58,3.58,0,0,0-1.24,2.28,23.62,23.62,0,0,0-.34,4.6,23.62,23.62,0,0,0,.34,4.6,3.58,3.58,0,0,0,1.24,2.28,4.1,4.1,0,0,0,2.45.64c1.85,0,3.39,0,4.62-.07s2.46-.14,3.7-.27l.53,5.21a20.56,20.56,0,0,1-3.89.91,37.93,37.93,0,0,1-5,.27,14.68,14.68,0,0,1-6.75-1.32A7.57,7.57,0,0,1,207.54,27a23.1,23.1,0,0,1-1.12-8,23.1,23.1,0,0,1,1.12-8,7.57,7.57,0,0,1,3.64-4.27A14.68,14.68,0,0,1,217.93,5.43Z" transform="translate(-0.49 -5.36)" style="fill:#005477"/><path d="M236.28,5.89v7a16.9,16.9,0,0,1-.24,2.8,14,14,0,0,1-.75,2.67c.26.79.49,1.63.69,2.53a11.41,11.41,0,0,1,.3,2.45v8.78h-7.1V5.89Zm2.47,10.22v4.75h-4.56V16.11ZM251.48,5.89,245.1,16.3a6.29,6.29,0,0,1-1,1.31,5.62,5.62,0,0,1-1.1.86v.11a8.09,8.09,0,0,1,1.25,1A5.36,5.36,0,0,1,245.36,21l6.54,11.1H244l-7.49-13.72,7.33-12.5Z" transform="translate(-0.49 -5.36)" style="fill:#005477"/></g></g><g style="isolation:isolate"><g style="isolation:isolate"><path d="M169.88,44.26a.54.54,0,0,1-.46-.17.63.63,0,0,1-.15-.44,1.63,1.63,0,0,1,0-.35,3.57,3.57,0,0,1,.12-.4l1.21-3.37h-.72l.09-.26h.73l.34-1h.74l-.33,1h1l-.09.26h-1l-1.29,3.68a1.35,1.35,0,0,0-.09.39q0,.3.27.3a.7.7,0,0,0,.48-.23,2.58,2.58,0,0,0,.37-.48l.2.13a2.77,2.77,0,0,1-.56.64A1.36,1.36,0,0,1,169.88,44.26Z" transform="translate(-0.49 -5.36)" style="fill:#005477"/><path d="M172,44.11l1.37-3.78a1.16,1.16,0,0,0,.1-.54.25.25,0,0,0-.21-.21,2.3,2.3,0,0,0-.53,0l.09-.26,1.5,0-.48,1.61a8.73,8.73,0,0,1,.52-.85,2.56,2.56,0,0,1,.63-.64,1.29,1.29,0,0,1,.75-.24,1,1,0,0,1,.57.17.63.63,0,0,1,.27.56.6.6,0,0,1-.1.33.48.48,0,0,1-.68,0,.76.76,0,0,1-.17-.35c0-.22-.15-.34-.33-.34a.72.72,0,0,0-.44.2,3,3,0,0,0-.52.65c-.13.21-.26.45-.4.73s-.28.61-.42,1l-.72,2Z" transform="translate(-0.49 -5.36)" style="fill:#005477"/><path d="M177.78,44.26a1.55,1.55,0,0,1-.85-.21,1.21,1.21,0,0,1-.48-.57,1.83,1.83,0,0,1-.16-.77,3.15,3.15,0,0,1,.3-1.34,4.25,4.25,0,0,1,1.81-2,2.44,2.44,0,0,1,1.1-.29.92.92,0,0,1,.77.33,1.57,1.57,0,0,1,.3.84l.37-1h.73l-1.37,3.91c0,.11-.06.2-.08.29a.88.88,0,0,0,0,.21c0,.15.05.22.17.22a.63.63,0,0,0,.47-.25,3.15,3.15,0,0,0,.38-.5l.2.14a3.92,3.92,0,0,1-.54.66,1.12,1.12,0,0,1-.81.31.58.58,0,0,1-.47-.16.63.63,0,0,1-.14-.44,2.09,2.09,0,0,1,.06-.47,3.15,3.15,0,0,1-.8.79A1.66,1.66,0,0,1,177.78,44.26Zm.11-.28a1.58,1.58,0,0,0,1.17-.6A5.1,5.1,0,0,0,180,41.8l.13-.37a3.08,3.08,0,0,0,.19-1,1.26,1.26,0,0,0-.19-.73.64.64,0,0,0-.57-.28,1.39,1.39,0,0,0-.87.34,3.56,3.56,0,0,0-.8.87,5.36,5.36,0,0,0-.57,1.15,3.62,3.62,0,0,0-.21,1.17,1.21,1.21,0,0,0,.21.78A.65.65,0,0,0,177.89,44Z" transform="translate(-0.49 -5.36)" style="fill:#005477"/><path d="M183.56,44.23a4.93,4.93,0,0,0-.29-.94c-.13-.29-.25-.56-.37-.81s-.2-.47-.28-.7a2,2,0,0,1-.12-.68,1.28,1.28,0,0,1,.35-.93,3.66,3.66,0,0,1,.87-.7l-1.14.06.1-.26,1.67-.09.06.19a3.68,3.68,0,0,0-.42.23,1.17,1.17,0,0,0-.58,1.11,4,4,0,0,0,.12.94c.08.32.18.7.31,1.13l.23.74L185.38,42a4.28,4.28,0,0,0,.55-.77,1.49,1.49,0,0,0,.2-.65,1.1,1.1,0,0,0-.08-.43c-.05-.11-.11-.21-.16-.3a.47.47,0,0,1-.08-.27.42.42,0,0,1,.14-.31.51.51,0,0,1,.36-.14.54.54,0,0,1,.44.22.9.9,0,0,1,.18.6,1.68,1.68,0,0,1-.36,1c-.24.32-.53.68-.86,1.06l-2,2.23Z" transform="translate(-0.49 -5.36)" style="fill:#005477"/><path d="M188.8,44.26a1.62,1.62,0,0,1-1-.25,1.47,1.47,0,0,1-.54-.69,2.25,2.25,0,0,1-.17-.9,3.13,3.13,0,0,1,.26-1.27,3.6,3.6,0,0,1,.71-1,3.41,3.41,0,0,1,1-.71,2.38,2.38,0,0,1,1.05-.25,1.19,1.19,0,0,1,.82.26.85.85,0,0,1,.3.68,1.16,1.16,0,0,1-.61,1,3.78,3.78,0,0,1-1.61.48l-.93.09a4.25,4.25,0,0,0-.13,1,1.87,1.87,0,0,0,.1.62,1,1,0,0,0,.31.51.8.8,0,0,0,.57.21,1.29,1.29,0,0,0,.79-.28,2.52,2.52,0,0,0,.56-.58l.19.15a3.5,3.5,0,0,1-.66.68A1.61,1.61,0,0,1,188.8,44.26Zm1.31-4.9a1.22,1.22,0,0,0-.74.28,3.2,3.2,0,0,0-.69.76,4.19,4.19,0,0,0-.51,1l.62-.09a3.21,3.21,0,0,0,.94-.27,1.45,1.45,0,0,0,.54-.39,1.41,1.41,0,0,0,.26-.42,1.34,1.34,0,0,0,.06-.35.73.73,0,0,0-.11-.41A.43.43,0,0,0,190.11,39.36Z" transform="translate(-0.49 -5.36)" style="fill:#005477"/><path d="M192.1,44.26a.59.59,0,0,1-.48-.16.68.68,0,0,1-.14-.44,1.81,1.81,0,0,1,.05-.38,3.17,3.17,0,0,1,.12-.41l1.8-5.52a1.31,1.31,0,0,0,.06-.23,1.41,1.41,0,0,0,0-.18.3.3,0,0,0-.12-.28.5.5,0,0,0-.29-.08l-.39,0,.07-.26,1.78,0-2.25,6.91c0,.11-.06.2-.08.29a.88.88,0,0,0,0,.21c0,.15.06.22.18.22a.65.65,0,0,0,.47-.25,3,3,0,0,0,.37-.5l.2.14a3.92,3.92,0,0,1-.54.66A1.12,1.12,0,0,1,192.1,44.26Z" transform="translate(-0.49 -5.36)" style="fill:#005477"/><path d="M200.79,44.23a4.31,4.31,0,0,0-.3-.94q-.18-.43-.36-.81c-.11-.24-.21-.47-.29-.7a2,2,0,0,1-.12-.68,1.33,1.33,0,0,1,.35-.93,4.1,4.1,0,0,1,.87-.7l-1.13.06.1-.26,1.67-.09.06.19a4.78,4.78,0,0,0-.42.23,1.55,1.55,0,0,0-.41.4,1.22,1.22,0,0,0-.18.71,3.54,3.54,0,0,0,.13.94c.08.32.18.7.3,1.13l.22.72L202.47,42a3.36,3.36,0,0,0,.41-.6,1.36,1.36,0,0,0,.16-.65,1.1,1.1,0,0,0-.1-.49q-.1-.21-.21-.39a.65.65,0,0,1-.1-.32.48.48,0,0,1,.46-.47.5.5,0,0,1,.38.17.81.81,0,0,1,.23.51,2.48,2.48,0,0,1,.42-.36,2.11,2.11,0,0,1,.52-.26l.09.18a2.48,2.48,0,0,0-.46.26,1.49,1.49,0,0,0-.44.46,1.46,1.46,0,0,0-.19.8,3.34,3.34,0,0,0,.11.84c.08.28.2.63.35,1.06l.25.71L205.53,42a2.85,2.85,0,0,0,.4-.6,1.36,1.36,0,0,0,.16-.65,1.1,1.1,0,0,0-.1-.49,3.55,3.55,0,0,0-.2-.39.74.74,0,0,1-.1-.31.49.49,0,0,1,.14-.32.43.43,0,0,1,.34-.16.53.53,0,0,1,.41.23,1,1,0,0,1,.19.68,2.31,2.31,0,0,1-.21.92,4.2,4.2,0,0,1-.68,1L204,44.23h-.18a4.87,4.87,0,0,0-.29-.91c-.12-.27-.23-.56-.34-.88l-.1-.32a2,2,0,0,1-.08-.41,2.77,2.77,0,0,1-.22.29L201,44.23Z" transform="translate(-0.49 -5.36)" style="fill:#005477"/><path d="M207.75,44.26a.59.59,0,0,1-.48-.16.68.68,0,0,1-.13-.44,1.76,1.76,0,0,1,0-.38,3.17,3.17,0,0,1,.12-.41l1-2.58a1.12,1.12,0,0,0,.08-.38.29.29,0,0,0-.12-.28.67.67,0,0,0-.31-.09h-.4l.08-.26,1.78,0L208,43.18c0,.11,0,.2-.07.29a.59.59,0,0,0,0,.21c0,.15.06.22.18.22a.63.63,0,0,0,.47-.25,3.89,3.89,0,0,0,.38-.5l.19.14a3.92,3.92,0,0,1-.54.66A1.1,1.1,0,0,1,207.75,44.26ZM209.29,38a.6.6,0,0,1-.6-.6.52.52,0,0,1,.17-.4.57.57,0,0,1,.43-.18.6.6,0,0,1,.57.58.57.57,0,0,1-.17.42A.52.52,0,0,1,209.29,38Z" transform="translate(-0.49 -5.36)" style="fill:#005477"/><path d="M210.62,44.26a.56.56,0,0,1-.46-.17.68.68,0,0,1-.14-.44,1.56,1.56,0,0,1,0-.35,3.57,3.57,0,0,1,.12-.4l1.21-3.37h-.71l.09-.26h.72l.34-1h.74l-.33,1h1l-.09.26h-1l-1.29,3.68a1.26,1.26,0,0,0-.08.39c0,.2.08.3.26.3a.68.68,0,0,0,.48-.23,2.66,2.66,0,0,0,.38-.48l.19.13a2.37,2.37,0,0,1-.56.64A1.36,1.36,0,0,1,210.62,44.26Z" transform="translate(-0.49 -5.36)" style="fill:#005477"/><path d="M213.52,44.11h-.8l2.21-6.78a1,1,0,0,0,.08-.39.34.34,0,0,0-.11-.29.56.56,0,0,0-.3-.08h-.39l.08-.26,1.78,0,0,.12-1.28,4a4.29,4.29,0,0,1,.9-.85,2,2,0,0,1,1.19-.37,1.05,1.05,0,0,1,.75.2.69.69,0,0,1,.2.52,1.93,1.93,0,0,1-.12.63l-1,2.76a1.54,1.54,0,0,0-.1.45c0,.15.06.22.18.22a.68.68,0,0,0,.47-.23,2.66,2.66,0,0,0,.38-.48l.19.13a2.46,2.46,0,0,1-.54.64,1.12,1.12,0,0,1-.8.3.62.62,0,0,1-.48-.16.65.65,0,0,1-.13-.43,1.59,1.59,0,0,1,0-.36,3.71,3.71,0,0,1,.12-.41l1-2.71a1.18,1.18,0,0,0,.08-.38.39.39,0,0,0-.12-.32.45.45,0,0,0-.3-.1,1.3,1.3,0,0,0-.65.19,2.66,2.66,0,0,0-.65.48,4.46,4.46,0,0,0-.55.61,2.47,2.47,0,0,0-.33.61v0Z" transform="translate(-0.49 -5.36)" style="fill:#005477"/><path d="M222.74,44.26a1.66,1.66,0,0,1-1-.25,1.61,1.61,0,0,1-.54-.69,2.44,2.44,0,0,1-.17-.9,3,3,0,0,1,.27-1.27A3.57,3.57,0,0,1,223,39.39a2.38,2.38,0,0,1,1.05-.25,1.17,1.17,0,0,1,.82.26.86.86,0,0,1,.31.68,1.16,1.16,0,0,1-.61,1,3.79,3.79,0,0,1-1.62.48l-.92.09a3.76,3.76,0,0,0-.13,1,2.16,2.16,0,0,0,.09.62,1,1,0,0,0,.32.51.77.77,0,0,0,.57.21,1.26,1.26,0,0,0,.78-.28,2.82,2.82,0,0,0,.57-.58l.19.15a3.5,3.5,0,0,1-.66.68A1.62,1.62,0,0,1,222.74,44.26Zm1.31-4.9a1.2,1.2,0,0,0-.73.28,3.45,3.45,0,0,0-.7.76,4.16,4.16,0,0,0-.5,1l.61-.09a3.12,3.12,0,0,0,.94-.27,1.58,1.58,0,0,0,.55-.39,1.36,1.36,0,0,0,.25-.42,1.43,1.43,0,0,0,.07-.35.73.73,0,0,0-.11-.41A.45.45,0,0,0,224.05,39.36Z" transform="translate(-0.49 -5.36)" style="fill:#005477"/><path d="M226.84,44.26a1.55,1.55,0,0,1-.85-.21,1.3,1.3,0,0,1-.49-.57,2,2,0,0,1-.15-.77,3.15,3.15,0,0,1,.3-1.34,4.25,4.25,0,0,1,1.81-2,2.44,2.44,0,0,1,1.1-.29.92.92,0,0,1,.77.33,1.57,1.57,0,0,1,.3.84l.37-1h.73l-1.38,3.91c0,.11,0,.2-.07.29a.88.88,0,0,0,0,.21c0,.15.05.22.17.22a.63.63,0,0,0,.47-.25,3.15,3.15,0,0,0,.38-.5l.2.14a3.92,3.92,0,0,1-.54.66,1.12,1.12,0,0,1-.81.31.58.58,0,0,1-.47-.16.63.63,0,0,1-.14-.44,2.09,2.09,0,0,1,.06-.47,3.15,3.15,0,0,1-.8.79A1.66,1.66,0,0,1,226.84,44.26ZM227,44a1.58,1.58,0,0,0,1.17-.6,5.1,5.1,0,0,0,.95-1.58l.13-.37a3.08,3.08,0,0,0,.19-1,1.26,1.26,0,0,0-.19-.73.64.64,0,0,0-.57-.28,1.42,1.42,0,0,0-.88.34,3.53,3.53,0,0,0-.79.87,4.93,4.93,0,0,0-.57,1.15,3.62,3.62,0,0,0-.21,1.17,1.21,1.21,0,0,0,.21.78A.65.65,0,0,0,227,44Z" transform="translate(-0.49 -5.36)" style="fill:#005477"/><path d="M232.19,44.26a1.77,1.77,0,0,1-.9-.19,1.2,1.2,0,0,1-.47-.48,1.05,1.05,0,0,1-.15-.5.69.69,0,0,1,.14-.43.48.48,0,0,1,.39-.17.38.38,0,0,1,.28.11.41.41,0,0,1,.11.28.62.62,0,0,1-.08.31.59.59,0,0,0-.08.31.45.45,0,0,0,.2.37.81.81,0,0,0,.51.15,1,1,0,0,0,.56-.15,1,1,0,0,0,.35-.37,1,1,0,0,0,.12-.45,1,1,0,0,0-.09-.44,1.84,1.84,0,0,0-.33-.46l-.4-.43a2,2,0,0,1-.37-.58,1.76,1.76,0,0,1-.12-.63,1.47,1.47,0,0,1,.17-.66,1.29,1.29,0,0,1,.49-.52,1.54,1.54,0,0,1,.84-.21,1.73,1.73,0,0,1,.81.14.79.79,0,0,1,.38.33.71.71,0,0,1,.11.34.57.57,0,0,1-.13.36.46.46,0,0,1-.36.15.42.42,0,0,1-.25-.1.36.36,0,0,1-.13-.31v-.28a.45.45,0,0,0-.09-.28.46.46,0,0,0-.35-.11.79.79,0,0,0-.63.25.85.85,0,0,0-.23.57,1.15,1.15,0,0,0,.09.44,1.5,1.5,0,0,0,.28.43l.42.44a4.42,4.42,0,0,1,.42.5,1.25,1.25,0,0,1,.21.76,1.29,1.29,0,0,1-.22.72,1.76,1.76,0,0,1-.61.57A1.7,1.7,0,0,1,232.19,44.26Z" transform="translate(-0.49 -5.36)" style="fill:#005477"/><path d="M236.54,44.26a1.62,1.62,0,0,1-.95-.25,1.47,1.47,0,0,1-.54-.69,2.25,2.25,0,0,1-.17-.9,3.13,3.13,0,0,1,.26-1.27,3.78,3.78,0,0,1,.7-1,3.61,3.61,0,0,1,1-.71,2.38,2.38,0,0,1,1.05-.25,1.19,1.19,0,0,1,.82.26.85.85,0,0,1,.3.68,1.16,1.16,0,0,1-.61,1,3.78,3.78,0,0,1-1.61.48l-.93.09a4.25,4.25,0,0,0-.13,1,1.87,1.87,0,0,0,.1.62,1,1,0,0,0,.31.51.8.8,0,0,0,.57.21,1.29,1.29,0,0,0,.79-.28,2.52,2.52,0,0,0,.56-.58l.19.15a3.5,3.5,0,0,1-.66.68A1.61,1.61,0,0,1,236.54,44.26Zm1.31-4.9a1.2,1.2,0,0,0-.74.28,3.2,3.2,0,0,0-.69.76,4.19,4.19,0,0,0-.51,1l.62-.09a3.21,3.21,0,0,0,.94-.27,1.45,1.45,0,0,0,.54-.39,1.19,1.19,0,0,0,.25-.42,1.07,1.07,0,0,0,.07-.35.73.73,0,0,0-.11-.41A.43.43,0,0,0,237.85,39.36Z" transform="translate(-0.49 -5.36)" style="fill:#005477"/></g></g></svg>